<svg width="42" height="49" viewBox="0 0 42 49" fill="none" xmlns="http://www.w3.org/2000/svg">
<path d="M19.192 48.768C18.4027 48.768 17.6773 48.736 17.016 48.672C16.376 48.6293 15.6507 48.5333 14.84 48.384C14.0293 48.2347 13.0053 48 11.768 47.68C12.1093 46.9333 12.5573 46.1333 13.112 45.28C13.688 44.4267 14.392 43.7013 15.224 43.104C16.056 42.4853 17.0587 42.176 18.232 42.176C18.2747 42.176 18.3173 42.176 18.36 42.176C18.424 42.176 18.4667 42.176 18.488 42.176C20.8987 42.1333 22.968 41.6 24.696 40.576C26.424 39.552 27.8427 38.208 28.952 36.544C30.0827 34.8587 30.9147 32.992 31.448 30.944C31.9813 28.8747 32.248 26.7733 32.248 24.64C32.248 21.2907 31.6507 18.304 30.456 15.68C29.2827 13.056 27.416 10.9973 24.856 9.504C22.296 7.98933 18.9573 7.232 14.84 7.232C14.008 7.232 13.1333 7.27466 12.216 7.36C11.2987 7.44533 10.3387 7.57333 9.336 7.744V48H0.312V2.304C3.17067 1.68533 5.83733 1.25867 8.312 1.024C10.808 0.767999 12.984 0.639999 14.84 0.639999C20.5147 0.639999 25.368 1.58933 29.4 3.488C33.4533 5.36533 36.5467 8.096 38.68 11.68C40.8347 15.264 41.912 19.584 41.912 24.64C41.912 28.0107 41.3467 31.1573 40.216 34.08C39.0853 37.0027 37.496 39.5627 35.448 41.76C33.4 43.9573 30.9893 45.6747 28.216 46.912C25.464 48.1493 22.456 48.768 19.192 48.768Z" fill="url(#paint0_linear_17_294)"/>
<defs>
<linearGradient id="paint0_linear_17_294" x1="43" y1="25.5" x2="-5" y2="25.5" gradientUnits="userSpaceOnUse">
<stop stop-color="#00AACF"/>
<stop offset="0.512616" stop-color="#0058A9"/>
<stop offset="1" stop-color="#00AACF"/>
</linearGradient>
</defs>
</svg>
